<svg width="49" height="38" viewBox="0 0 49 38" fill="none" xmlns="http://www.w3.org/2000/svg">
<path d="M4.83333 38C3.50417 38 2.36632 37.5349 1.41979 36.6047C0.473264 35.6745 0 34.5562 0 33.25V4.75C0 3.44375 0.473264 2.32552 1.41979 1.39531C2.36632 0.465104 3.50417 0 4.83333 0H43.5C44.8292 0 45.967 0.465104 46.9135 1.39531C47.8601 2.32552 48.3333 3.44375 48.3333 4.75V33.25C48.3333 34.5562 47.8601 35.6745 46.9135 36.6047C45.967 37.5349 44.8292 38 43.5 38H4.83333ZM24.1667 21.375L4.83333 9.5V33.25H43.5V9.5L24.1667 21.375ZM24.1667 16.625L43.5 4.75H4.83333L24.1667 16.625ZM4.83333 9.5V4.75V33.25V9.5Z" fill="white"/>
</svg>
